<svg id="Capa_1" enable-background="new 0 0 512 512" height="512" viewBox="0 0 512 512" width="512" xmlns="http://www.w3.org/2000/svg"><g><path d="m276.47 240.648h215.295c5.522 0 10-4.551 10-10.074l.001-.187c0-60.233-23.434-116.861-65.984-159.453-42.553-42.594-99.132-66.052-159.312-66.052-5.522 0-10 4.477-10 10v215.766c0 5.523 4.477 10 10 10zm10-215.525c105.333 5.08 190.094 89.993 195.064 195.525h-195.064z"/><path d="m509.075 268.659c-1.876-1.878-4.421-2.933-7.075-2.933h-215.295c-4.044 0-7.689 2.436-9.238 6.171-1.548 3.735-.694 8.036 2.164 10.896l152.106 152.255c1.874 1.876 4.418 2.932 7.07 2.933h.004c2.65 0 5.193-1.053 7.068-2.926 42.567-42.536 66.049-99.116 66.12-159.317.004-2.655-1.048-5.201-2.924-7.079zm-70.426 145.011-11.126-11.137 17.228-17.229c3.905-3.905 3.905-10.237 0-14.142-3.906-3.905-10.236-3.905-14.143 0l-17.221 17.221-18.785-18.803 45.552-45.553c3.905-3.905 3.905-10.237 0-14.142-3.906-3.905-10.236-3.905-14.143 0l-45.545 45.545-17.254-17.271 15.154-15.155c3.905-3.905 3.905-10.237 0-14.142-3.906-3.905-10.236-3.905-14.143 0l-15.147 15.147-38.249-38.286h180.923c-2.33 47.786-20.92 92.574-53.101 127.947z"/><path d="m235.295 277.734v-211.628c0-5.523-4.477-10-10-10-60.18 0-116.758 23.458-159.312 66.053-42.549 42.592-65.983 99.22-65.983 159.453s23.434 116.861 65.984 159.453c42.553 42.595 99.131 66.053 159.312 66.053 60.107 0 116.637-23.41 159.175-65.917 3.906-3.903 3.909-10.234.006-14.142zm-10 209.384c-113.2 0-205.295-92.19-205.295-205.506 0-109.962 86.719-200.029 195.295-205.265v200.034l-105.447 67.034c-4.661 2.963-6.037 9.143-3.074 13.804 1.905 2.998 5.142 4.637 8.448 4.637 1.835 0 3.692-.505 5.355-1.563l103.312-65.677 139.203 139.337c-37.822 34.36-86.371 53.165-137.797 53.165z"/></g></svg>