<?xml version="1.0" encoding="iso-8859-1"?>
<!-- Generator: Adobe Illustrator 19.0.0, SVG Export Plug-In . SVG Version: 6.00 Build 0)  -->
<svg version="1.1" id="Capa_1" xmlns="http://www.w3.org/2000/svg" xmlns:xlink="http://www.w3.org/1999/xlink" x="0px" y="0px"
	 viewBox="0 0 490.667 490.667" style="enable-background:new 0 0 490.667 490.667;" xml:space="preserve">
<g>
	<g>
		<g>
			<path d="M437.333,0h-384C23.936,0,0,23.936,0,53.333V352c0,29.397,23.936,53.333,53.333,53.333h160v21.333h-74.667
				c-29.397,0-53.333,23.936-53.333,53.333c0,5.888,4.779,10.667,10.667,10.667h299.093c5.888,0,10.667-4.779,10.667-10.667
				c0-1.173-0.192-2.283-0.533-3.328c-1.707-27.861-24.939-50.005-53.227-50.005h-74.667v-21.333h160
				c29.397,0,53.333-23.936,53.333-53.333V53.333C490.667,23.936,466.731,0,437.333,0z M256,426.667h-21.333v-21.333H256V426.667z
				 M469.333,320h-448V53.333c0-17.643,14.357-32,32-32h384c17.643,0,32,14.357,32,32V320z"/>
			<path d="M280.469,201.387c11.221-14.464,18.197-32.384,18.197-52.053c0-47.061-38.272-85.333-85.333-85.333
				S128,102.272,128,149.333s38.272,85.333,85.333,85.333c19.669,0,37.589-6.976,52.053-18.197l57.749,57.749
				c2.069,2.069,4.8,3.115,7.531,3.115c2.731,0,5.461-1.045,7.552-3.115c4.16-4.16,4.16-10.923,0-15.083L280.469,201.387z
				 M213.333,213.333c-35.285,0-64-28.715-64-64s28.715-64,64-64s64,28.715,64,64S248.619,213.333,213.333,213.333z"/>
		</g>
	</g>
</g>
<g>
</g>
<g>
</g>
<g>
</g>
<g>
</g>
<g>
</g>
<g>
</g>
<g>
</g>
<g>
</g>
<g>
</g>
<g>
</g>
<g>
</g>
<g>
</g>
<g>
</g>
<g>
</g>
<g>
</g>
</svg>
