<?xml version="1.0" encoding="UTF-8" standalone="no"?>
<!DOCTYPE svg PUBLIC "-//W3C//DTD SVG 1.1//EN" "http://www.w3.org/Graphics/SVG/1.1/DTD/svg11.dtd">
<svg version="1.1" xmlns="http://www.w3.org/2000/svg" xmlns:xlink="http://www.w3.org/1999/xlink" preserveAspectRatio="xMidYMid meet" viewBox="353.6296296296296 -395.6499275397248 280.09106417974857 280.0910641797486" width="100" height="100"><defs><path d="M492.68 -394.65C455.8 -394.65 421.14 -380.29 395.06 -354.22C368.99 -328.14 354.63 -293.48 354.63 -256.6C354.63 -219.73 368.99 -185.06 395.06 -158.99C421.14 -132.92 455.8 -118.56 492.68 -118.56C529.55 -118.56 564.22 -132.92 590.29 -158.99C616.36 -185.06 630.72 -219.73 630.72 -256.6C630.72 -293.48 616.36 -328.14 590.29 -354.22C564.22 -380.29 529.55 -394.65 492.68 -394.65ZM381.73 -256.6C381.73 -256.7 381.73 -256.8 381.73 -256.9C381.73 -256.93 381.73 -256.95 381.73 -256.98C381.73 -257.02 381.73 -257.06 381.73 -257.1C382 -317.55 430.85 -366.73 491.17 -367.53C491.29 -367.54 491.42 -367.55 491.55 -367.55C491.62 -367.55 491.7 -367.54 491.77 -367.54C492.07 -367.54 492.37 -367.55 492.68 -367.55C553.85 -367.55 603.63 -317.78 603.63 -256.6C603.63 -195.43 553.85 -145.65 492.68 -145.65C431.5 -145.65 381.73 -195.43 381.73 -256.6Z" id="gveiQgOVx"></path><path d="M568.78 -258.11C568.78 -262.62 572.44 -266.28 576.95 -266.28C577.94 -266.28 585.81 -266.28 586.8 -266.28C582.17 -311.61 545.4 -347.58 499.71 -350.96C499.71 -350.1 499.71 -343.24 499.71 -342.38C499.71 -337.87 496.06 -334.22 491.55 -334.22C487.03 -334.22 483.38 -337.87 483.38 -342.38C483.38 -343.22 483.38 -349.92 483.38 -350.76C438.36 -346.35 402.51 -310.26 398.45 -265.15C399.33 -265.15 406.39 -265.15 407.27 -265.15C411.78 -265.15 415.44 -261.49 415.44 -256.98C415.44 -252.47 411.78 -248.81 407.27 -248.81C406.38 -248.81 399.27 -248.81 398.38 -248.81C402.14 -202.97 438.71 -166.28 484.51 -162.35C484.51 -163.38 484.51 -171.67 484.51 -172.7C484.51 -177.21 488.16 -180.87 492.68 -180.87C497.19 -180.87 500.84 -177.21 500.84 -172.7C500.84 -171.67 500.84 -163.38 500.84 -162.35C547.01 -166.32 583.81 -203.57 587.05 -249.94C586.38 -249.94 583.01 -249.94 576.95 -249.94C571.51 -252.38 568.78 -255.1 568.78 -258.11ZM498.45 -250.83C496.92 -249.3 494.84 -248.44 492.68 -248.44C490.51 -248.44 488.43 -249.3 486.9 -250.83C482.15 -255.58 444.15 -293.58 439.4 -298.33C436.21 -301.52 436.21 -306.69 439.4 -309.88C442.59 -313.07 447.76 -313.07 450.95 -309.88C453.73 -307.1 467.64 -293.19 492.68 -268.16C505.59 -281.06 512.76 -288.24 514.19 -289.67C517.38 -292.86 522.55 -292.86 525.74 -289.67C528.93 -286.48 528.93 -281.31 525.74 -278.12C520.28 -272.66 501.18 -253.56 498.45 -250.83Z" id="bxM1f7gb"></path></defs><g><g><use xlink:href="#gveiQgOVx" opacity="1" fill="#ff9600" fill-opacity="1"></use><g><use xlink:href="#gveiQgOVx" opacity="1" fill-opacity="0" stroke="#000000" stroke-width="1" stroke-opacity="0"></use></g></g><g><use xlink:href="#bxM1f7gb" opacity="1" fill="#ff9600" fill-opacity="1"></use><g><use xlink:href="#bxM1f7gb" opacity="1" fill-opacity="0" stroke="#000000" stroke-width="1" stroke-opacity="0"></use></g></g></g></svg>