<?xml version="1.0" encoding="UTF-8" standalone="no"?>
<!DOCTYPE svg PUBLIC "-//W3C//DTD SVG 1.1//EN" "http://www.w3.org/Graphics/SVG/1.1/DTD/svg11.dtd">
<svg version="1.1" xmlns="http://www.w3.org/2000/svg" xmlns:xlink="http://www.w3.org/1999/xlink" preserveAspectRatio="xMidYMid meet" viewBox="98.09412100543503 -749.8891398676265 280.0910641797486 280.0910641797486" width="100" height="100"><defs><path d="M163.8 -683.64L163.8 -744.15L103.83 -683.64L163.8 -683.64Z" id="a1paCfrBI"></path><path d="M245.23 -538.05C245.23 -502.37 274.26 -472.8 309.94 -472.8C345.62 -472.8 375.19 -502.37 375.19 -538.05C375.19 -573.73 345.62 -602.76 309.94 -602.76C274.26 -602.76 245.23 -573.73 245.23 -538.05ZM307.57 -508.06C304.41 -504.9 299.29 -504.9 296.13 -508.06C294.51 -509.68 281.57 -522.62 279.95 -524.24C276.79 -527.4 276.79 -532.52 279.95 -535.68C283.11 -538.84 288.23 -538.84 291.39 -535.68C292.09 -534.98 295.57 -531.49 301.85 -525.22C317.83 -541.2 326.71 -550.08 328.48 -551.85C331.64 -555.01 336.76 -555.01 339.92 -551.85C343.08 -548.69 343.08 -543.58 339.92 -540.42C333.45 -533.95 310.8 -511.3 307.57 -508.06Z" id="e11ZSE3vs0"></path><path d="M235.91 -570.4C248.42 -598.92 276.85 -618.93 309.94 -618.93C309.94 -629.5 309.94 -714.05 309.94 -724.62C309.94 -738 299.05 -748.89 285.67 -748.89C278.63 -748.89 243.39 -748.89 179.98 -748.89C179.98 -704.89 179.98 -680.44 179.98 -675.55C179.98 -671.08 176.36 -667.46 171.89 -667.46C167.04 -667.46 142.77 -667.46 99.09 -667.46C99.09 -565.55 99.09 -508.93 99.09 -497.6C99.09 -484.22 109.98 -472.8 123.36 -472.8C137.21 -472.8 248.05 -472.8 261.91 -472.8C246.22 -484.48 234.73 -502.03 230.69 -521.87C221.57 -521.87 148.65 -521.87 139.54 -521.87C135.07 -521.87 131.45 -525.49 131.45 -529.96C131.45 -534.43 135.07 -538.05 139.54 -538.05C148.49 -538.05 220.1 -538.05 229.05 -538.05C229.05 -543.59 229.62 -548.99 230.69 -554.22C221.57 -554.22 148.65 -554.22 139.54 -554.22C135.07 -554.22 131.45 -557.84 131.45 -562.31C131.45 -566.78 135.07 -570.4 139.54 -570.4C158.81 -570.4 226.27 -570.4 235.91 -570.4ZM269.49 -699.82C273.96 -699.82 277.58 -696.2 277.58 -691.73C277.58 -687.26 273.96 -683.64 269.49 -683.64C262.97 -683.64 210.77 -683.64 204.25 -683.64C199.78 -683.64 196.16 -687.26 196.16 -691.73C196.16 -696.2 199.78 -699.82 204.25 -699.82C217.3 -699.82 262.97 -699.82 269.49 -699.82ZM269.49 -667.46C273.96 -667.46 277.58 -663.85 277.58 -659.38C277.58 -654.9 273.96 -651.29 269.49 -651.29C262.97 -651.29 210.77 -651.29 204.25 -651.29C199.78 -651.29 196.16 -654.9 196.16 -659.38C196.16 -663.85 199.78 -667.46 204.25 -667.46C217.3 -667.46 262.97 -667.46 269.49 -667.46ZM269.49 -635.11C273.96 -635.11 277.58 -631.49 277.58 -627.02C277.58 -622.55 273.96 -618.93 269.49 -618.93C256.5 -618.93 152.53 -618.93 139.54 -618.93C135.07 -618.93 131.45 -622.55 131.45 -627.02C131.45 -631.49 135.07 -635.11 139.54 -635.11C165.53 -635.11 256.5 -635.11 269.49 -635.11ZM240.17 -602.76C244.64 -602.76 248.26 -599.14 248.26 -594.67C248.26 -590.2 244.64 -586.58 240.17 -586.58C230.11 -586.58 149.6 -586.58 139.54 -586.58C135.07 -586.58 131.45 -590.2 131.45 -594.67C131.45 -599.14 135.07 -602.76 139.54 -602.76C159.66 -602.76 230.11 -602.76 240.17 -602.76Z" id="baRSbbQWq"></path></defs><g><g><use xlink:href="#a1paCfrBI" opacity="1" fill="#ff9600" fill-opacity="1"></use><g><use xlink:href="#a1paCfrBI" opacity="1" fill-opacity="0" stroke="#000000" stroke-width="1" stroke-opacity="0"></use></g></g><g><use xlink:href="#e11ZSE3vs0" opacity="1" fill="#ff9600" fill-opacity="1"></use><g><use xlink:href="#e11ZSE3vs0" opacity="1" fill-opacity="0" stroke="#000000" stroke-width="1" stroke-opacity="0"></use></g></g><g><use xlink:href="#baRSbbQWq" opacity="1" fill="#ff9600" fill-opacity="1"></use><g><use xlink:href="#baRSbbQWq" opacity="1" fill-opacity="0" stroke="#000000" stroke-width="1" stroke-opacity="0"></use></g></g></g></svg>