<?xml version="1.0" encoding="UTF-8" standalone="no"?>
<!DOCTYPE svg PUBLIC "-//W3C//DTD SVG 1.1//EN" "http://www.w3.org/Graphics/SVG/1.1/DTD/svg11.dtd">
<svg version="1.1" xmlns="http://www.w3.org/2000/svg" xmlns:xlink="http://www.w3.org/1999/xlink" preserveAspectRatio="xMidYMid meet" viewBox="159.1851851851852 -395.6499275397248 280.0910641797486 278.67159420639155" width="100.52" height="100"><defs><path d="M433.06 -278.88C431.6 -279.98 424.31 -285.5 411.19 -295.44C415.96 -311.2 418.61 -319.95 419.14 -321.7C419.79 -323.85 419.53 -326.18 418.4 -328.12C417.28 -330.07 415.4 -331.46 413.21 -331.98C411.43 -332.39 402.52 -334.47 386.49 -338.21C384.45 -354.55 383.31 -363.62 383.08 -365.44C382.8 -367.67 381.61 -369.68 379.79 -371C377.98 -372.33 375.69 -372.84 373.48 -372.41C371.69 -372.07 362.71 -370.34 346.54 -367.24C338.02 -381.33 333.29 -389.16 332.35 -390.72C331.19 -392.65 329.28 -394.01 327.08 -394.47C324.88 -394.94 322.59 -394.48 320.74 -393.19C319.24 -392.15 311.74 -386.92 298.23 -377.51C284.72 -386.92 277.22 -392.15 275.72 -393.19C273.87 -394.48 271.58 -394.94 269.38 -394.47C267.18 -394 265.27 -392.65 264.11 -390.72C263.17 -389.16 258.44 -381.33 249.92 -367.24C233.76 -370.34 224.77 -372.06 222.98 -372.41C220.77 -372.83 218.49 -372.32 216.67 -371C214.85 -369.68 213.66 -367.67 213.38 -365.43C213.15 -363.62 212.02 -354.55 209.97 -338.21C193.94 -334.47 185.03 -332.39 183.25 -331.97C181.06 -331.46 179.18 -330.07 178.06 -328.12C176.93 -326.17 176.67 -323.85 177.32 -321.7C177.85 -319.95 180.5 -311.2 185.27 -295.44C172.15 -285.5 164.86 -279.98 163.41 -278.88C161.61 -277.52 160.46 -275.48 160.23 -273.25C159.99 -271.01 160.7 -268.78 162.17 -267.08C163.36 -265.69 169.34 -258.78 180.11 -246.33C172.17 -231.91 167.75 -223.9 166.87 -222.3C165.79 -220.33 165.57 -218 166.26 -215.86C166.96 -213.72 168.5 -211.97 170.54 -211.01C172.19 -210.24 180.47 -206.35 195.37 -199.36C193.98 -182.96 193.21 -173.84 193.05 -172.02C192.86 -169.78 193.6 -167.56 195.11 -165.89C196.61 -164.22 198.74 -163.25 200.99 -163.2C202.82 -163.17 211.96 -162.98 228.42 -162.66C233.82 -147.11 236.82 -138.47 237.42 -136.74C238.15 -134.61 239.74 -132.89 241.79 -131.98C243.84 -131.06 246.18 -131.04 248.26 -131.91C249.94 -132.62 258.37 -136.17 273.54 -142.57C284.79 -130.56 291.05 -123.88 292.3 -122.55C293.84 -120.91 295.98 -119.98 298.23 -119.98C300.48 -119.98 302.63 -120.91 304.16 -122.55C305.41 -123.88 311.67 -130.56 322.92 -142.57C338.09 -136.17 346.52 -132.62 348.2 -131.91C350.28 -131.04 352.62 -131.06 354.67 -131.98C356.72 -132.89 358.31 -134.61 359.04 -136.74C359.64 -138.47 362.64 -147.1 368.04 -162.66C384.5 -162.98 393.64 -163.17 395.47 -163.2C397.72 -163.25 399.85 -164.22 401.35 -165.89C402.85 -167.56 403.6 -169.78 403.41 -172.02C403.26 -173.84 402.48 -182.96 401.09 -199.36C415.99 -206.35 424.27 -210.24 425.92 -211.01C427.96 -211.97 429.51 -213.72 430.2 -215.86C430.9 -218 430.68 -220.33 429.59 -222.3C428.71 -223.9 424.29 -231.91 416.35 -246.33C427.12 -258.78 433.1 -265.69 434.3 -267.08C435.77 -268.78 436.47 -271.01 436.23 -273.25C436 -275.48 434.85 -277.52 433.06 -278.88ZM220.43 -257.31C220.43 -300.21 255.33 -335.12 298.23 -335.12C341.13 -335.12 376.03 -300.21 376.03 -257.31C376.03 -214.42 341.13 -179.51 298.23 -179.51C255.33 -179.51 220.43 -214.42 220.43 -257.31Z" id="b40t9Q0men"></path><path d="M236.69 -257.31C236.69 -223.38 264.3 -195.78 298.23 -195.78C332.16 -195.78 359.77 -223.38 359.77 -257.31C359.77 -291.25 332.16 -318.85 298.23 -318.85C264.3 -318.85 236.69 -291.25 236.69 -257.31ZM295.27 -234.15C293.68 -232.56 291.6 -231.77 289.52 -231.77C287.44 -231.77 285.36 -232.56 283.77 -234.15C282.03 -235.89 268.1 -249.82 266.36 -251.57C263.18 -254.74 263.18 -259.89 266.36 -263.06C269.53 -266.24 274.68 -266.24 277.85 -263.06C278.63 -262.29 282.52 -258.4 289.52 -251.4C306.97 -268.85 316.67 -278.54 318.61 -280.48C321.78 -283.66 326.93 -283.66 330.11 -280.48C333.28 -277.31 333.28 -272.16 330.11 -268.98C323.14 -262.02 298.75 -237.63 295.27 -234.15Z" id="a6hEBw8UJ"></path></defs><g><g><use xlink:href="#b40t9Q0men" opacity="1" fill="#ff9600" fill-opacity="1"></use><g><use xlink:href="#b40t9Q0men" opacity="1" fill-opacity="0" stroke="#000000" stroke-width="1" stroke-opacity="0"></use></g></g><g><use xlink:href="#a6hEBw8UJ" opacity="1" fill="#ff9600" fill-opacity="1"></use><g><use xlink:href="#a6hEBw8UJ" opacity="1" fill-opacity="0" stroke="#000000" stroke-width="1" stroke-opacity="0"></use></g></g></g></svg>