<svg height="512pt" viewBox="-82 0 512 512.00002" width="512pt" xmlns="http://www.w3.org/2000/svg"><path d="m215.597656 362.949219c-2.078125 4.847656-7.699218 7.089843-12.546875 5.011719-1.207031-.519532-2.296875-1.28125-3.195312-2.242188l-26.207031-27.921875-26.203126 27.921875c-3.609374 3.847656-9.65625 4.039062-13.503906.425781-.957031-.898437-1.722656-1.988281-2.238281-3.195312l-15.125-35.183594-19.355469 9.753906v174.46875l69.328125-77.027343c3.765625-3.917969 9.996094-4.046876 13.914063-.28125.097656.089843.191406.1875.285156.28125l69.328125 77.039062v-174.460938l-19.367187-9.773437zm0 0"/><path d="m269.183594 173.859375c0 52.761719-42.773438 95.535156-95.535156 95.535156-52.757813 0-95.53125-42.773437-95.53125-95.535156s42.773437-95.53125 95.53125-95.53125c52.761718 0 95.535156 42.769531 95.535156 95.53125zm0 0"/><path d="m303.871094 238.125 32.96875-7.738281-20.292969-27.09375c-3.15625-4.226563-2.289063-10.210938 1.9375-13.371094.15625-.117187.316406-.230469.480469-.335937l28.335937-18.582032-28.335937-18.582031c-4.410156-2.890625-5.644532-8.8125-2.753906-13.226563.109374-.164062.222656-.324218.339843-.480468l20.28125-27.09375-32.949219-7.730469c-5.136718-1.203125-8.324218-6.34375-7.117187-11.480469.042969-.195312.09375-.386718.152344-.574218l9.753906-32.433594-33.636719 4.003906c-5.238281.625-9.992187-3.117188-10.617187-8.355469-.027344-.203125-.042969-.402343-.054688-.605469l-1.910156-33.820312-30.199219 15.21875c-4.714844 2.371094-10.457031.472656-12.828125-4.238281-.089843-.175781-.171875-.355469-.25-.539063l-13.375-31.066406-23.1875 24.675781c-3.609375 3.847657-9.65625 4.039063-13.503906.425781-.144531-.136718-.285156-.277343-.421875-.425781l-23.1875-24.675781-13.375 31.117188c-2.074219 4.847656-7.6875 7.097656-12.539062 5.023437-.183594-.078125-.363282-.160156-.539063-.25l-30.226563-15.285156-1.910156 33.808593c-.148437 2.636719-1.378906 5.089844-3.402344 6.785157-2.007812 1.710937-4.648437 2.503906-7.269531 2.175781l-33.636719-4 9.8125 32.433594c1.519532 5.050781-1.34375 10.378906-6.394531 11.898437-.191406.058594-.386719.109375-.582031.15625l-32.957031 7.726563 20.28125 27.09375c3.160156 4.226562 2.296875 10.214844-1.925781 13.375-.160157.117187-.316407.226562-.480469.335937l-28.355469 18.609375 28.335938 18.597656c4.410156 2.898438 5.640624 8.820313 2.742187 13.230469-.105469.164063-.21875.324219-.335937.480469l-20.28125 27.09375 32.960937 7.726562c5.132813 1.207032 8.320313 6.351563 7.113281 11.488282-.046875.1875-.09375.375-.152344.558594l-9.753906 32.484374 33.636719-4.003906c5.242187-.625 9.996094 3.113282 10.621094 8.355469.023437.199219.039062.402344.050781.605469l1.910156 33.820312 30.238282-15.289062c1.332031-.671875 2.804687-1.027344 4.296874-1.03125 1.117188 0 2.222657.195312 3.269532.585937 2.476562.898438 4.472656 2.785157 5.511718 5.207031l13.375 31.105469 23.183594-24.707031c3.613282-3.847656 9.660156-4.035156 13.503906-.425781.148438.136719.289063.28125.425782.425781l23.148437 24.695312 13.375-31.105468c2.074219-4.851563 7.6875-7.101563 12.539063-5.027344.183594.078125.363281.164062.539062.25l30.234375 15.285156 1.910157-33.816406c.296874-5.269531 4.804687-9.300781 10.074218-9.003906.199219.011718.398438.027344.597656.050781l33.636719 4.003906-9.753906-32.480469c-1.515625-5.054687 1.347656-10.382812 6.402344-11.898437.1875-.054687.371093-.105469.5625-.148437zm-130.222656 50.382812c-63.3125 0-114.636719-51.324218-114.636719-114.636718 0-63.316406 51.324219-114.640625 114.636719-114.640625 63.316406 0 114.640624 51.324219 114.640624 114.640625-.066406 63.285156-51.351562 114.570312-114.640624 114.636718zm0 0"/></svg>