<?xml version="1.0" encoding="UTF-8" standalone="no"?>
<!DOCTYPE svg PUBLIC "-//W3C//DTD SVG 1.1//EN" "http://www.w3.org/Graphics/SVG/1.1/DTD/svg11.dtd">
<svg version="1.1" xmlns="http://www.w3.org/2000/svg" xmlns:xlink="http://www.w3.org/1999/xlink" preserveAspectRatio="xMidYMid meet" viewBox="381.40740740740756 -749.8891398676265 280.0910641797487 280.0910641797486" width="150" height="150"><defs><path d="M520.45 -748.89C483.58 -748.89 448.91 -734.53 422.84 -708.46C396.77 -682.38 382.41 -647.72 382.41 -610.84C382.41 -573.97 396.77 -539.3 422.84 -513.23C448.91 -487.16 483.58 -472.8 520.45 -472.8C557.33 -472.8 591.99 -487.16 618.07 -513.23C644.14 -539.3 658.5 -573.97 658.5 -610.84C658.5 -647.72 644.14 -682.38 618.07 -708.46C591.99 -734.53 557.33 -748.89 520.45 -748.89ZM409.5 -610.84C409.5 -610.94 409.51 -611.04 409.51 -611.14C409.51 -611.17 409.5 -611.19 409.5 -611.22C409.5 -611.26 409.51 -611.3 409.51 -611.34C409.78 -671.79 458.63 -720.97 518.95 -721.77C519.07 -721.78 519.2 -721.79 519.32 -721.79C519.4 -721.79 519.48 -721.78 519.55 -721.78C519.85 -721.78 520.15 -721.79 520.45 -721.79C581.63 -721.79 631.4 -672.02 631.4 -610.84C631.4 -549.67 581.63 -499.89 520.45 -499.89C459.27 -499.89 409.5 -549.67 409.5 -610.84Z" id="bTtXVzi9F"></path><path d="M596.56 -612.35C596.56 -616.86 600.22 -620.52 604.73 -620.52C605.71 -620.52 613.59 -620.52 614.58 -620.52C609.95 -665.85 573.18 -701.82 527.49 -705.2C527.49 -704.34 527.49 -697.48 527.49 -696.62C527.49 -692.11 523.84 -688.46 519.32 -688.46C514.81 -688.46 511.16 -692.11 511.16 -696.62C511.16 -697.46 511.16 -704.16 511.16 -705C466.14 -700.59 430.29 -664.5 426.23 -619.39C427.11 -619.39 434.17 -619.39 435.05 -619.39C439.56 -619.39 443.22 -615.73 443.22 -611.22C443.22 -606.71 439.56 -603.05 435.05 -603.05C434.16 -603.05 427.05 -603.05 426.16 -603.05C429.92 -557.21 466.49 -520.52 512.28 -516.59C512.28 -517.62 512.28 -525.91 512.28 -526.94C512.28 -531.45 515.94 -535.11 520.45 -535.11C524.96 -535.11 528.62 -531.45 528.62 -526.94C528.62 -525.91 528.62 -517.62 528.62 -516.59C574.79 -520.55 611.59 -557.81 614.83 -604.18C614.15 -604.18 610.79 -604.18 604.73 -604.18C599.28 -606.62 596.56 -609.34 596.56 -612.35ZM526.23 -605.07C524.7 -603.54 522.62 -602.68 520.45 -602.68C518.29 -602.68 516.21 -603.54 514.68 -605.07C509.93 -609.82 471.92 -647.82 467.17 -652.57C463.98 -655.76 463.98 -660.93 467.17 -664.12C470.36 -667.31 475.54 -667.31 478.73 -664.12C481.51 -661.34 495.42 -647.43 520.45 -622.4C533.36 -635.3 540.53 -642.48 541.97 -643.91C545.16 -647.1 550.33 -647.1 553.52 -643.91C556.71 -640.72 556.71 -635.55 553.52 -632.36C548.06 -626.9 528.96 -607.8 526.23 -605.07Z" id="a3TFDi056"></path></defs><g><g><use xlink:href="#bTtXVzi9F" opacity="1" fill="#cfaa45" fill-opacity="1"></use><g><use xlink:href="#bTtXVzi9F" opacity="1" fill-opacity="0" stroke="#000000" stroke-width="1" stroke-opacity="0"></use></g></g><g><use xlink:href="#a3TFDi056" opacity="1" fill="#cfaa45" fill-opacity="1"></use><g><use xlink:href="#a3TFDi056" opacity="1" fill-opacity="0" stroke="#000000" stroke-width="1" stroke-opacity="0"></use></g></g></g></svg>