<?xml version="1.0" encoding="UTF-8" standalone="no"?>
<!DOCTYPE svg PUBLIC "-//W3C//DTD SVG 1.1//EN" "http://www.w3.org/Graphics/SVG/1.1/DTD/svg11.dtd">
<svg version="1.1" xmlns="http://www.w3.org/2000/svg" xmlns:xlink="http://www.w3.org/1999/xlink" preserveAspectRatio="xMidYMid meet" viewBox="16.185185185185194 -395.6499275397248 280.0910641797486 278.67159420639155" width="150" height="149.23"><defs><path d="M290.06 -278.88C288.6 -279.98 281.31 -285.5 268.19 -295.44C272.96 -311.2 275.61 -319.95 276.14 -321.7C276.79 -323.85 276.53 -326.18 275.4 -328.12C274.28 -330.07 272.4 -331.46 270.21 -331.98C268.43 -332.39 259.52 -334.47 243.49 -338.21C241.45 -354.55 240.31 -363.62 240.08 -365.44C239.8 -367.67 238.61 -369.68 236.79 -371C234.98 -372.33 232.69 -372.84 230.48 -372.41C228.69 -372.07 219.71 -370.34 203.54 -367.24C195.02 -381.33 190.29 -389.16 189.35 -390.72C188.19 -392.65 186.28 -394.01 184.08 -394.47C181.88 -394.94 179.59 -394.48 177.74 -393.19C176.24 -392.15 168.74 -386.92 155.23 -377.51C141.72 -386.92 134.22 -392.15 132.72 -393.19C130.87 -394.48 128.58 -394.94 126.38 -394.47C124.18 -394 122.27 -392.65 121.11 -390.72C120.17 -389.16 115.44 -381.33 106.92 -367.24C90.76 -370.34 81.77 -372.06 79.98 -372.41C77.77 -372.83 75.49 -372.32 73.67 -371C71.85 -369.68 70.66 -367.67 70.38 -365.43C70.15 -363.62 69.02 -354.55 66.97 -338.21C50.94 -334.47 42.03 -332.39 40.25 -331.97C38.06 -331.46 36.18 -330.07 35.06 -328.12C33.93 -326.17 33.67 -323.85 34.32 -321.7C34.85 -319.95 37.5 -311.2 42.27 -295.44C29.15 -285.5 21.86 -279.98 20.41 -278.88C18.61 -277.52 17.46 -275.48 17.23 -273.25C16.99 -271.01 17.7 -268.78 19.17 -267.08C20.36 -265.69 26.34 -258.78 37.11 -246.33C29.17 -231.91 24.75 -223.9 23.87 -222.3C22.79 -220.33 22.57 -218 23.26 -215.86C23.96 -213.72 25.5 -211.97 27.54 -211.01C29.19 -210.24 37.47 -206.35 52.37 -199.36C50.98 -182.96 50.21 -173.84 50.05 -172.02C49.86 -169.78 50.6 -167.56 52.11 -165.89C53.61 -164.22 55.74 -163.25 57.99 -163.2C59.82 -163.17 68.96 -162.98 85.42 -162.66C90.82 -147.11 93.82 -138.47 94.42 -136.74C95.15 -134.61 96.74 -132.89 98.79 -131.98C100.84 -131.06 103.18 -131.04 105.26 -131.91C106.94 -132.62 115.37 -136.17 130.54 -142.57C141.79 -130.56 148.05 -123.88 149.3 -122.55C150.84 -120.91 152.98 -119.98 155.23 -119.98C157.48 -119.98 159.63 -120.91 161.16 -122.55C162.41 -123.88 168.67 -130.56 179.92 -142.57C195.09 -136.17 203.52 -132.62 205.2 -131.91C207.28 -131.04 209.62 -131.06 211.67 -131.98C213.72 -132.89 215.31 -134.61 216.04 -136.74C216.64 -138.47 219.64 -147.1 225.04 -162.66C241.5 -162.98 250.64 -163.17 252.47 -163.2C254.72 -163.25 256.85 -164.22 258.35 -165.89C259.85 -167.56 260.6 -169.78 260.41 -172.02C260.26 -173.84 259.48 -182.96 258.09 -199.36C272.99 -206.35 281.27 -210.24 282.92 -211.01C284.96 -211.97 286.51 -213.72 287.2 -215.86C287.9 -218 287.68 -220.33 286.59 -222.3C285.71 -223.9 281.29 -231.91 273.35 -246.33C284.12 -258.78 290.1 -265.69 291.3 -267.08C292.77 -268.78 293.47 -271.01 293.23 -273.25C293 -275.48 291.85 -277.52 290.06 -278.88ZM77.43 -257.31C77.43 -300.21 112.33 -335.12 155.23 -335.12C198.13 -335.12 233.03 -300.21 233.03 -257.31C233.03 -214.42 198.13 -179.51 155.23 -179.51C112.33 -179.51 77.43 -214.42 77.43 -257.31Z" id="a20pHOb3Vx"></path><path d="M93.69 -257.31C93.69 -223.38 121.3 -195.78 155.23 -195.78C189.16 -195.78 216.77 -223.38 216.77 -257.31C216.77 -291.25 189.16 -318.85 155.23 -318.85C121.3 -318.85 93.69 -291.25 93.69 -257.31ZM152.27 -234.15C150.68 -232.56 148.6 -231.77 146.52 -231.77C144.44 -231.77 142.36 -232.56 140.77 -234.15C139.03 -235.89 125.1 -249.82 123.36 -251.57C120.18 -254.74 120.18 -259.89 123.36 -263.06C126.53 -266.24 131.68 -266.24 134.85 -263.06C135.63 -262.29 139.52 -258.4 146.52 -251.4C163.97 -268.85 173.67 -278.54 175.61 -280.48C178.78 -283.66 183.93 -283.66 187.11 -280.48C190.28 -277.31 190.28 -272.16 187.11 -268.98C180.14 -262.02 155.75 -237.63 152.27 -234.15Z" id="aPEpmIudz"></path></defs><g><g><use xlink:href="#a20pHOb3Vx" opacity="1" fill="#cfaa45" fill-opacity="1"></use><g><use xlink:href="#a20pHOb3Vx" opacity="1" fill-opacity="0" stroke="#000000" stroke-width="1" stroke-opacity="0"></use></g></g><g><use xlink:href="#aPEpmIudz" opacity="1" fill="#cfaa45" fill-opacity="1"></use><g><use xlink:href="#aPEpmIudz" opacity="1" fill-opacity="0" stroke="#000000" stroke-width="1" stroke-opacity="0"></use></g></g></g></svg>