<svg height="448pt" viewBox="0 0 448 448" width="448pt" xmlns="http://www.w3.org/2000/svg"><path d="m400 192h-360v16h376v-184h-16zm0 0"/><path d="m384 0h-384v176h384zm-16 136h-8c-8.835938 0-16 7.164062-16 16v8h-304v-8c0-8.835938-7.164062-16-16-16h-8v-96h8c8.835938 0 16-7.164062 16-16v-8h304v8c0 8.835938 7.164062 16 16 16h8zm0 0"/><path d="m448 240v-184h-16v168h-360v16zm0 0"/><path d="m192 64c-.535156 0-1.046875.015625-1.535156.046875-13.078125.828125-23.074219 11.996094-22.457032 25.085937.621094 13.089844 11.625 23.265626 24.722657 22.855469 13.097656-.410156 23.449219-11.25 23.246093-24.355469-.199218-13.101562-10.871093-23.621093-23.976562-23.632812zm0 0"/><path d="m329.015625 32h-274.03125c-2.933594 11.257812-11.726563 20.050781-22.984375 22.984375v66.03125c11.257812 2.933594 20.050781 11.726563 22.984375 22.984375h274.03125c2.933594-11.257812 11.726563-20.050781 22.984375-22.984375v-66.03125c-11.257812-2.933594-20.050781-11.726563-22.984375-22.984375zm-209.015625 64h-48v-16h48zm102.007812 18.457031c-7.003906 7.976563-16.90625 12.828125-27.503906 13.464844-.855468.054687-1.703125.078125-2.558594.078125-18.84375-.03125-35.109374-13.203125-39.054687-31.628906-3.941406-18.421875 5.507813-37.101563 22.6875-44.839844 17.175781-7.742188 37.429687-2.441406 48.613281 12.71875 11.1875 15.160156 10.277344 36.074219-2.183594 50.207031zm89.992188-18.457031h-48v-16h48zm0 0"/><path d="m208 356.800781v11.199219c0 4.640625 19.625 16 56 16s56-11.359375 56-16v-11.199219c-17.574219 7.941407-36.726562 11.769531-56 11.199219-19.273438.570312-38.425781-3.257812-56-11.199219zm0 0"/><path d="m208 324.800781v11.199219c0 4.640625 19.625 16 56 16s56-11.359375 56-16v-11.199219c-17.574219 7.941407-36.726562 11.769531-56 11.199219-19.273438.570312-38.425781-3.257812-56-11.199219zm0 0"/><path d="m392 416c36.375 0 56-11.359375 56-16v-11.199219c-17.574219 7.941407-36.726562 11.769531-56 11.199219-19.273438.570312-38.425781-3.257812-56-11.199219v11.199219c0 4.640625 19.625 16 56 16zm0 0"/><path d="m208 292.800781v11.199219c0 4.640625 19.625 16 56 16s56-11.359375 56-16v-11.199219c-17.574219 7.941407-36.726562 11.769531-56 11.199219-19.273438.570312-38.425781-3.257812-56-11.199219zm0 0"/><path d="m448 336c0-8.835938-25.070312-16-56-16s-56 7.164062-56 16 25.070312 16 56 16 56-7.164062 56-16zm0 0"/><path d="m392 384c36.375 0 56-11.359375 56-16v-11.199219c-17.574219 7.941407-36.726562 11.769531-56 11.199219-19.273438.570312-38.425781-3.257812-56-11.199219v11.199219c0 4.640625 19.625 16 56 16zm0 0"/><path d="m80 324.800781v11.199219c0 4.640625 19.625 16 56 16s56-11.359375 56-16v-11.199219c-17.574219 7.941407-36.726562 11.769531-56 11.199219-19.273438.570312-38.425781-3.257812-56-11.199219zm0 0"/><path d="m80 388.800781v11.199219c0 4.640625 19.625 16 56 16s56-11.359375 56-16v-11.199219c-17.574219 7.941407-36.726562 11.769531-56 11.199219-19.273438.570312-38.425781-3.257812-56-11.199219zm0 0"/><path d="m208 388.800781v11.199219c0 4.640625 19.625 16 56 16s56-11.359375 56-16v-11.199219c-17.574219 7.941407-36.726562 11.769531-56 11.199219-19.273438.570312-38.425781-3.257812-56-11.199219zm0 0"/><path d="m80 356.800781v11.199219c0 4.640625 19.625 16 56 16s56-11.359375 56-16v-11.199219c-17.574219 7.941407-36.726562 11.769531-56 11.199219-19.273438.570312-38.425781-3.257812-56-11.199219zm0 0"/><path d="m80 420.800781v11.199219c0 4.640625 19.625 16 56 16s56-11.359375 56-16v-11.199219c-17.574219 7.941407-36.726562 11.769531-56 11.199219-19.273438.570312-38.425781-3.257812-56-11.199219zm0 0"/><path d="m208 420.800781v11.199219c0 4.640625 19.625 16 56 16s56-11.359375 56-16v-11.199219c-17.574219 7.941407-36.726562 11.769531-56 11.199219-19.273438.570312-38.425781-3.257812-56-11.199219zm0 0"/><path d="m192 304c0-8.835938-25.070312-16-56-16s-56 7.164062-56 16 25.070312 16 56 16 56-7.164062 56-16zm0 0"/><path d="m392 448c36.375 0 56-11.359375 56-16v-11.199219c-17.574219 7.941407-36.726562 11.769531-56 11.199219-19.273438.570312-38.425781-3.257812-56-11.199219v11.199219c0 4.640625 19.625 16 56 16zm0 0"/><path d="m320 272c0-8.835938-25.070312-16-56-16s-56 7.164062-56 16 25.070312 16 56 16 56-7.164062 56-16zm0 0"/></svg>