<svg id="Capa_1" enable-background="new 0 0 512.004 512.004" height="512" viewBox="0 0 512.004 512.004" width="512" xmlns="http://www.w3.org/2000/svg"><path d="m497 512.004h-482c-8.284 0-15-6.716-15-15s6.716-15 15-15h482c8.284 0 15 6.716 15 15s-6.716 15-15 15z"/><path d="m106 512.004h-60c-8.284 0-15-6.716-15-15v-110c0-13.785 11.215-25 25-25h40c13.785 0 25 11.215 25 25v110c0 8.284-6.716 15-15 15zm-45-30h30v-90h-30zm35-90h.01z"/><path d="m226 512.004h-60c-8.284 0-15-6.716-15-15v-146c0-13.785 11.215-25 25-25h40c13.785 0 25 11.215 25 25v146c0 8.284-6.716 15-15 15zm-45-30h30v-126h-30zm35-126h.01z"/><path d="m346 512.004h-60c-8.284 0-15-6.716-15-15v-201c0-13.785 11.215-25 25-25h40c13.785 0 25 11.215 25 25v201c0 8.284-6.716 15-15 15zm-45-30h30v-181h-30zm35-181h.01z"/><path d="m466 512.004h-60c-8.284 0-15-6.716-15-15v-301c0-13.785 11.215-25 25-25h40c13.785 0 25 11.215 25 25v301c0 8.284-6.716 15-15 15zm-45-30h30v-281h-30zm35-281h.01z"/><path d="m15 322.308c-8.284 0-15-6.716-15-15s6.716-15 15-15c88.206 0 184.244-32.12 270.421-90.443 79.281-53.655 142.455-123.995 173.323-192.984 3.384-7.562 12.257-10.95 19.818-7.565 7.562 3.383 10.949 12.256 7.565 19.818-33.086 73.947-100.112 148.877-183.891 205.576-91.089 61.647-193.099 95.598-287.236 95.598z"/><path d="m496.991 121.678c-6.624 0-12.684-4.42-14.479-11.122l-20.681-77.181-77.181 20.681c-8.005 2.146-16.227-2.604-18.371-10.606s2.604-16.227 10.606-18.371l91.67-24.563c8.005-2.145 16.227 2.605 18.371 10.606l24.563 91.67c2.144 8.002-2.604 16.227-10.606 18.371-1.301.348-2.607.515-3.892.515z"/></svg>